<svg width="32" height="32" viewBox="0 0 32 32" fill="none" xmlns="http://www.w3.org/2000/svg">
<rect width="32" height="32" rx="16" fill="#FFD2C9"/>
<path d="M16 24.9582C11.06 24.9582 7.04167 20.9398 7.04167 15.9998C7.04167 11.0598 11.06 7.0415 16 7.0415C20.94 7.0415 24.9583 11.0598 24.9583 15.9998C24.9583 20.9398 20.94 24.9582 16 24.9582ZM16 8.2915C11.7492 8.2915 8.29167 11.749 8.29167 15.9998C8.29167 20.2507 11.7492 23.7082 16 23.7082C20.2508 23.7082 23.7083 20.2507 23.7083 15.9998C23.7083 11.749 20.2508 8.2915 16 8.2915ZM16.85 18.9165C16.85 18.4565 16.4775 18.0832 16.0167 18.0832H16.0083C15.5483 18.0832 15.1791 18.4565 15.1791 18.9165C15.1791 19.3765 15.5567 19.7498 16.0167 19.7498C16.4767 19.7498 16.85 19.3765 16.85 18.9165ZM16.625 16.059V12.2498C16.625 11.9048 16.345 11.6248 16 11.6248C15.655 11.6248 15.375 11.9048 15.375 12.2498V16.059C15.375 16.404 15.655 16.684 16 16.684C16.345 16.684 16.625 16.404 16.625 16.059Z" fill="#26262C"/>
</svg>
