<svg width="16" height="20" viewBox="0 0 16 20" fill="none" xmlns="http://www.w3.org/2000/svg">
<path d="M12 0.25H4C1.582 0.25 0.25 1.582 0.25 4V19C0.25 19.268 0.393023 19.5149 0.624023 19.6479C0.740023 19.716 0.87 19.75 1 19.75C1.128 19.75 1.25707 19.717 1.37207 19.651L8 15.863L14.6279 19.65C14.8599 19.783 15.146 19.782 15.376 19.647C15.607 19.513 15.75 19.266 15.75 18.999V3.99902C15.75 1.58202 14.418 0.25 12 0.25ZM14.25 17.707L8.37207 14.349C8.14207 14.217 7.85793 14.217 7.62793 14.349L1.75 17.708V4C1.75 2.423 2.423 1.75 4 1.75H12C13.577 1.75 14.25 2.423 14.25 4V17.707ZM11.25 8C11.25 8.414 10.914 8.75 10.5 8.75H8.75V10.5C8.75 10.914 8.414 11.25 8 11.25C7.586 11.25 7.25 10.914 7.25 10.5V8.75H5.5C5.086 8.75 4.75 8.414 4.75 8C4.75 7.586 5.086 7.25 5.5 7.25H7.25V5.5C7.25 5.086 7.586 4.75 8 4.75C8.414 4.75 8.75 5.086 8.75 5.5V7.25H10.5C10.914 7.25 11.25 7.586 11.25 8Z" fill="#26262C"/>
</svg>
