<svg width="32" height="32" viewBox="0 0 32 32" fill="none" xmlns="http://www.w3.org/2000/svg">
<rect width="32" height="32" rx="16" fill="#FFD2C9"/>
<path d="M19.125 20.1667V21C19.125 23.015 18.015 24.125 16 24.125H11C8.985 24.125 7.875 23.015 7.875 21V11C7.875 8.985 8.985 7.875 11 7.875H16C18.015 7.875 19.125 8.985 19.125 11V11.8333C19.125 12.1783 18.845 12.4583 18.5 12.4583C18.155 12.4583 17.875 12.1783 17.875 11.8333V11C17.875 9.68583 17.3142 9.125 16 9.125H11C9.68583 9.125 9.125 9.68583 9.125 11V21C9.125 22.3142 9.68583 22.875 11 22.875H16C17.3142 22.875 17.875 22.3142 17.875 21V20.1667C17.875 19.8217 18.155 19.5417 18.5 19.5417C18.845 19.5417 19.125 19.8217 19.125 20.1667ZM24.0767 16.2392C24.14 16.0867 24.14 15.9142 24.0767 15.7617C24.045 15.685 23.9992 15.6158 23.9417 15.5583L21.4417 13.0583C21.1975 12.8142 20.8017 12.8142 20.5575 13.0583C20.3133 13.3025 20.3133 13.6983 20.5575 13.9425L21.9909 15.3758H12.6667C12.3217 15.3758 12.0417 15.6558 12.0417 16.0008C12.0417 16.3458 12.3217 16.6258 12.6667 16.6258H21.9909L20.5575 18.0592C20.3133 18.3033 20.3133 18.6992 20.5575 18.9433C20.6792 19.065 20.8392 19.1267 20.9992 19.1267C21.1592 19.1267 21.3192 19.0658 21.4408 18.9433L23.9408 16.4433C23.9992 16.3842 24.045 16.315 24.0767 16.2392Z" fill="#25314C"/>
</svg>
