<svg width="32" height="32" viewBox="0 0 32 32" fill="none" xmlns="http://www.w3.org/2000/svg">
<rect width="32" height="32" rx="16" fill="#FFD2C9"/>
<path d="M16 24.125C15.1767 24.125 14.4367 23.6975 14.0183 22.9817C13.845 22.6833 13.945 22.3008 14.2433 22.1267C14.54 21.9533 14.9233 22.0533 15.0983 22.3517C15.4808 23.0075 16.5192 23.0075 16.9017 22.3517C17.0758 22.0533 17.4592 21.9533 17.7567 22.1267C18.055 22.3 18.1558 22.6833 17.9817 22.9817C17.5633 23.6975 16.8233 24.125 16 24.125ZM23.2292 21.2708C23.3333 21.0542 23.3042 20.7975 23.155 20.61C23.1392 20.5908 21.6208 18.6575 21.6208 16.4167V13.4958C21.6208 10.3967 19.0992 7.875 16 7.875C12.9008 7.875 10.3792 10.3967 10.3792 13.4958V16.4167C10.3792 18.6575 8.86083 20.5908 8.845 20.61C8.69583 20.7975 8.66666 21.055 8.77083 21.2708C8.87499 21.4867 9.09333 21.625 9.33333 21.625H22.6667C22.9067 21.625 23.125 21.4867 23.2292 21.2708ZM11.6292 16.4167V13.4958C11.6292 11.0858 13.59 9.125 16 9.125C18.41 9.125 20.3708 11.0858 20.3708 13.4958V16.4167C20.3708 18.03 20.9958 19.465 21.5108 20.375H10.4883C11.0042 19.465 11.6292 18.03 11.6292 16.4167Z" fill="#26262C"/>
</svg>
