<svg width="32" height="32" viewBox="0 0 32 32" fill="none" xmlns="http://www.w3.org/2000/svg">
<rect width="32" height="32" rx="16" fill="#FFD2C9"/>
<path d="M16.0075 14.9583C14.0542 14.9583 12.4659 13.3692 12.4659 11.4167C12.4659 9.46417 14.0542 7.875 16.0075 7.875C17.9609 7.875 19.5492 9.46417 19.5492 11.4167C19.5492 13.3692 17.9609 14.9583 16.0075 14.9583ZM16.0075 9.125C14.7434 9.125 13.7159 10.1525 13.7159 11.4167C13.7159 12.6808 14.7434 13.7083 16.0075 13.7083C17.2717 13.7083 18.2992 12.6808 18.2992 11.4167C18.2992 10.1525 17.2709 9.125 16.0075 9.125ZM19.3308 24.125H12.6692C10.6525 24.125 9.54167 23.0209 9.54167 21.0159C9.54167 18.7984 10.7967 16.2083 14.3333 16.2083H17.6667C21.2033 16.2083 22.4583 18.7975 22.4583 21.0159C22.4583 23.0209 21.3475 24.125 19.3308 24.125ZM14.3333 17.4583C11.0475 17.4583 10.7917 20.1809 10.7917 21.0159C10.7917 22.3192 11.3534 22.875 12.6692 22.875H19.3308C20.6466 22.875 21.2083 22.3192 21.2083 21.0159C21.2083 20.1817 20.9525 17.4583 17.6667 17.4583H14.3333Z" fill="#26262C"/>
</svg>
