<svg width="36" height="36" viewBox="0 0 36 36" fill="none" xmlns="http://www.w3.org/2000/svg">
<rect width="36" height="36" rx="12" fill="#D5DEFE"/>
<path fill-rule="evenodd" clip-rule="evenodd" d="M21.4416 21.4833L22.5833 25.5L20.275 24.575C19.0833 24.1 17.75 24.1 16.5583 24.575L14.25 25.5L15.3917 21.4833C15.4917 21.5 15.5833 21.5083 15.6833 21.5166C15.7416 21.5166 15.7999 21.5249 15.8666 21.5249H16.0916L16.2582 21.6917C16.8332 22.2667 17.6 22.5833 18.4166 22.5833C19.2333 22.5833 20.0001 22.2667 20.5751 21.6917L20.7417 21.5249H20.9667C21.0334 21.5249 21.0917 21.5166 21.15 21.5166C21.25 21.5083 21.3415 21.5 21.4416 21.4833ZM23.305 17.1925L23.0392 17.4583C22.8701 17.6274 22.775 17.8574 22.775 18.0966V18.4699C22.775 19.4391 22.0091 20.2241 21.0499 20.2666C21.0232 20.2674 20.9975 20.2749 20.97 20.2749H20.5966C20.3575 20.2749 20.1276 20.37 19.9584 20.5391L19.6925 20.8049C18.9875 21.5099 17.845 21.5099 17.1408 20.8049L16.8749 20.5391C16.7057 20.37 16.4758 20.2749 16.2367 20.2749H15.8633C15.8358 20.2749 15.8109 20.2683 15.7834 20.2666C14.8251 20.2241 14.0583 19.4391 14.0583 18.4699V18.0966C14.0583 17.8574 13.9632 17.6274 13.794 17.4583L13.5283 17.1925C12.8233 16.4875 12.8233 15.345 13.5283 14.6408L13.794 14.375C13.9632 14.2058 14.0583 13.9758 14.0583 13.7367V13.3633C14.0583 12.3667 14.8659 11.5583 15.8625 11.5583H16.2359C16.475 11.5583 16.7049 11.4633 16.8741 11.2941L17.14 11.0283C17.845 10.3233 18.9875 10.3233 19.6917 11.0283L19.9576 11.2941C20.1267 11.4633 20.3566 11.5583 20.5958 11.5583H20.9691C21.9658 11.5583 22.7733 12.3658 22.7733 13.3633V13.7367C22.7733 13.9758 22.8682 14.2058 23.0374 14.375L23.3033 14.6408C24.0092 15.345 24.0091 16.4883 23.305 17.1925ZM20.6784 15.1408L19.4333 14.9608C19.3425 14.9475 19.2641 14.8908 19.2241 14.8091L18.685 13.7208C18.5758 13.5 18.2599 13.5 18.1499 13.7208L17.6108 14.8091C17.5699 14.8908 17.4916 14.9475 17.4016 14.9608L16.1567 15.1408C15.9284 15.1741 15.8367 15.4541 16.0025 15.6141L16.9026 16.4875C16.9684 16.5517 16.9984 16.6433 16.9825 16.7333L16.7766 17.9274C16.735 18.1699 16.99 18.3557 17.2092 18.2407L18.2883 17.6758C18.3691 17.6333 18.4658 17.6333 18.5475 17.6758L19.6274 18.2407C19.8457 18.3549 20.1008 18.1699 20.0591 17.9274L19.8534 16.7317C19.8376 16.6417 19.8675 16.5491 19.9334 16.4858L20.8332 15.6125C20.9974 15.4541 20.9067 15.1741 20.6784 15.1408Z" fill="#5E7BDE"/>
</svg>
